<?xml version="1.0" standalone="no"?>
<!DOCTYPE svg PUBLIC "-//W3C//DTD SVG 20010904//EN"
 "http://www.w3.org/TR/2001/REC-SVG-20010904/DTD/svg10.dtd">
<svg version="1.0" xmlns="http://www.w3.org/2000/svg"
 width="260.000000pt" height="260.000000pt" viewBox="0 0 260.000000 260.000000"
 preserveAspectRatio="xMidYMid meet">
<metadata>
Created by potrace 1.11, written by Peter Selinger 2001-2013
</metadata>
<g transform="translate(0.000000,260.000000) scale(0.100000,-0.100000)"
fill="#000000" stroke="none">
<path d="M1660 2582 c0 -14 -108 -124 -164 -167 -21 -16 -44 -34 -50 -40 -6
-5 -31 -26 -56 -47 -137 -111 -223 -235 -229 -328 -1 -8 -8 1 -17 20 -48 109
-74 142 -150 189 -83 53 -197 81 -344 85 -41 1 -91 -1 -110 -5 -19 -5 -47 -10
-62 -14 -33 -6 -37 -20 -8 -22 36 -3 145 -84 247 -184 159 -154 222 -188 368
-195 49 -2 61 -6 63 -21 9 -59 12 -63 45 -63 17 0 38 -4 46 -9 19 -12 111 22
171 63 197 134 315 360 325 624 2 56 1 102 -3 102 -3 0 -17 -12 -29 -27 -13
-14 -23 -24 -24 -22 -1 2 -2 16 -3 32 -3 27 -16 51 -16 29z"/>
<path d="M1591 1874 c-76 -16 -191 -56 -191 -66 0 -5 -5 -8 -11 -8 -6 0 -36
-15 -67 -33 -87 -50 -122 -57 -257 -53 -66 2 -136 7 -155 11 -45 9 -246 11
-286 3 -17 -3 -44 -13 -60 -21 -29 -15 -83 -64 -85 -76 0 -3 -2 -17 -5 -29
-12 -64 66 -141 210 -211 82 -40 258 -103 321 -116 17 -3 35 -7 40 -9 6 -1 26
-6 45 -9 19 -4 49 -10 65 -13 64 -12 221 -11 273 2 127 33 274 141 405 299 27
33 56 64 64 68 31 19 -147 -255 -265 -408 -111 -144 -134 -228 -98 -370 25
-95 120 -238 241 -360 75 -76 87 -84 141 -96 32 -7 70 -12 84 -11 94 6 258
405 296 718 18 145 7 325 -27 439 -35 122 -138 250 -239 297 -119 56 -310 78
-439 52z m-220 -283 c71 -69 52 -213 -34 -255 -49 -23 -77 -13 -101 39 -31 64
-11 172 40 216 35 31 63 31 95 0z"/>
<path d="M375 1438 c-60 -35 -87 -127 -89 -303 -1 -71 24 -270 34 -270 1 0 3
-8 5 -17 10 -54 58 -158 139 -303 111 -199 304 -419 422 -482 89 -47 209 -68
284 -50 188 44 196 46 290 40 191 -11 222 -8 284 22 67 33 141 103 149 141 6
35 -29 75 -124 139 -41 28 -79 55 -85 60 -6 6 -30 26 -54 45 -24 19 -61 52
-84 73 -51 46 -91 66 -160 77 -145 23 -189 -8 -436 -303 -60 -72 -75 -82 -60
-40 17 47 25 64 98 213 113 231 132 279 136 337 5 89 -26 177 -84 234 -9 9
-75 56 -146 103 -166 111 -166 111 -254 179 -41 32 -91 69 -110 81 -41 28
-126 41 -155 24z"/>
</g>
</svg>
